#!OML:ASF I:\Actors\actors\Patient Classification 2\Patient 1\Session 1\actor1.ASF
:FULLY-SPECIFIED
:DEGREES
213
root -0.848859 18.0328 5.85658 -1.21777 -23.2404 -6.97595
lowerback 3.9683 -1.17262 0.544808
upperback -2.69555 -1.48791 1.08431
thorax -4.99826 -0.738228 0.939302
lowerneck -15.099 -1.16902 4.90737
upperneck 32.893 -4.88678 3.71531
head 13.7033 -1.12117 -0.182286
rclavicle -3.97569e-015 -8.74653e-015
rhumerus 51.7374 -10.1981 -55.7964
rradius 49.1435
rwrist -32.8092
rhand -16.9458 -64.2811
rfingers 7.12502
rthumb 9.28764 94.0565
lclavicle -3.97569e-015 -8.74653e-015
lhumerus -5.0374 -11.9106 89.8457
lradius 59.5536
lwrist 29.7476
lhand -13.3219 -15.2703
lfingers 7.12502
lthumb 12.7829 14.3183
rfemur 11.8117 10.1795 22.713
rtibia -5.78896
rfoot -6.97189 -5.15769
rtoes 8.77163
lfemur 26.2895 -4.60044 -13.6331
ltibia -19.6166
lfoot -11.9827 30.6038
ltoes 6.88353
214
root -0.854894 18.0353 5.84281 -1.27536 -23.1092 -6.90868
lowerback 3.94022 -1.30599 0.450963
upperback -2.70726 -1.673 1.06656
thorax -4.99026 -0.827136 0.98812
lowerneck -14.9085 -1.1227 5.0278
upperneck 33.3088 -4.8637 3.64687
head 13.8409 -1.09761 -0.224501
rclavicle 5.53615e-014 7.95139e-015
rhumerus 49.8475 -7.21142 -53.7433
rradius 47.5867
rwrist -33.1163
rhand -15.2065 -65.4142
rfingers 7.12502
rthumb 10.9656 95.1078
lclavicle 5.53615e-014 7.95139e-015
lhumerus -5.20233 -11.5438 89.9548
lradius 59.5429
lwrist 29.7241
lhand -13.1766 -15.1901
lfingers 7.12502
lthumb 12.923 14.3897
rfemur 11.8729 10.0774 22.6852
rtibia -5.86963
rfoot -6.92107 -5.23665
rtoes 8.29859
lfemur 26.2277 -4.52441 -13.6012
ltibia -19.5813
lfoot -11.8449 30.4393
ltoes 6.61793
215
root -0.859443 18.0365 5.82907 -1.35902 -22.9832 -6.84524
lowerback 3.92973 -1.43713 0.408239
upperback -2.6807 -1.85486 0.981775
thorax -4.9557 -0.917435 0.938282
lowerneck -14.769 -1.06153 5.03665
upperneck 33.7963 -4.89406 3.84827
head 14.0385 -1.07119 -0.148407
rclavicle 1.37161e-014 0
rhumerus 47.4769 -3.62101 -51.3456
rradius 47.1634
rwrist -34.2055
rhand -13.6574 -65.3377
rfingers 7.12502
rthumb 12.4595 94.9463
lclavicle 1.37161e-014 0
lhumerus -5.29868 -11.2579 90.006
lradius 59.5043
lwrist 29.7768
lhand -13.237 -15.2042
lfingers 7.12502
lthumb 12.8648 14.3794
rfemur 11.9646 9.98061 22.6596
rtibia -5.97236
rfoot -6.87572 -5.30466
rtoes 8.14648
lfemur 26.2069 -4.58815 -13.6183
ltibia -19.5492
lfoot -11.7406 30.3708
ltoes 6.49523
216
root -0.866003 18.0364 5.81208 -1.4156 -22.8421 -6.86547
lowerback 4.04737 -1.54677 0.491413
upperback -2.69456 -2.0011 0.841926
thorax -5.04339 -0.994902 0.763121
lowerneck -14.6343 -1.09594 4.8138
upperneck 34.1794 -5.11663 4.39855
head 14.2139 -1.11403 0.0786785
rclavicle -2.74323e-014 -1.98785e-014
rhumerus 44.4863 -0.0156352 -50.2079
rradius 47.9502
rwrist -34.9317
rhand -12.1601 -65.3973
rfingers 7.12502
rthumb 13.9027 94.9126
lclavicle -2.74323e-014 -1.98785e-014
lhumerus -5.45885 -11.1309 90.0323
lradius 59.4875
lwrist 29.7772
lhand -13.5219 -15.3039
lfingers 7.12502
lthumb 12.5901 14.2967
rfemur 12.0835 9.86394 22.7232
rtibia -6.14523
rfoot -6.82778 -5.36409
rtoes 8.59096
lfemur 26.1641 -4.57254 -13.5079
ltibia -19.4965
lfoot -11.6276 30.2273
ltoes 6.23763
217
root -0.87646 18.0369 5.79348 -1.46589 -22.741 -6.84259
lowerback 4.14843 -1.66377 0.449978
upperback -2.67245 -2.16381 0.738379
thorax -5.07906 -1.07572 0.695715
lowerneck -14.3848 -1.07236 4.86314
upperneck 34.4149 -5.15362 4.51758
head 14.2715 -1.10796 0.115864
rclavicle 3.06128e-014 -4.77083e-015
rhumerus 41.8952 3.64641 -49.7853
rradius 48.4515
rwrist -35.1009
rhand -9.90765 -65.7559
rfingers 7.12502
rthumb 16.0726 95.1094
lclavicle 3.06128e-014 -4.77083e-015
lhumerus -5.58617 -10.8865 90.0962
lradius 59.5187
lwrist 29.7072
lhand -13.9085 -15.3484
lfingers 7.12502
lthumb 12.2173 14.2748
rfemur 12.1807 9.78674 22.7539
rtibia -6.32256
rfoot -6.76383 -5.42431
rtoes 8.94726
lfemur 26.0893 -4.46075 -13.4064
ltibia -19.4345
lfoot -11.5143 30.0616
ltoes 5.7781
218
root -0.888753 18.0379 5.77506 -1.52236 -22.6892 -6.75329
lowerback 4.04007 -1.77662 0.160025
upperback -2.45884 -2.33436 0.731334
thorax -4.78178 -1.15171 0.855673
lowerneck -14.453 -1.02902 4.89903
upperneck 34.6212 -5.14327 4.54508
head 14.3833 -1.08804 0.122793
rclavicle -1.63997e-014 -1.59028e-015
rhumerus 39.8361 7.29256 -49.7465
rradius 48.696
rwrist -35.806
rhand -8.64569 -65.9752
rfingers 7.12502
rthumb 17.2875 95.2263
lclavicle -1.63997e-014 -1.59028e-015
lhumerus -5.42717 -10.5036 90.259
lradius 59.4775
lwrist 29.6597
lhand -14.2356 -15.3461
lfingers 7.12502
lthumb 11.9019 14.2956
rfemur 12.2824 9.76058 22.7246
rtibia -6.51916
rfoot -6.63566 -5.46964
rtoes 8.76599
lfemur 26.014 -4.41185 -13.3984
ltibia -19.3597
lfoot -11.4993 29.9808
ltoes 5.38119
219
root -0.902918 18.0389 5.75441 -1.5585 -22.6736 -6.67659
lowerback 3.89842 -1.80037 -0.166312
upperback -2.19085 -2.38743 0.703432
thorax -4.40946 -1.17051 1.00161
lowerneck -14.5509 -1.0517 5.07971
upperneck 34.6692 -5.23578 4.50825
head 14.4241 -1.10618 0.0605132
rclavicle 5.66536e-015 -1.27222e-014
rhumerus 37.8568 10.6419 -50.0067
rradius 48.7235
rwrist -36.051
rhand -7.67134 -66.6215
rfingers 7.12502
rthumb 18.225 95.7877
lclavicle 5.66536e-015 -1.27222e-014
lhumerus -5.13957 -10.3262 90.539
lradius 59.2403
lwrist 29.6705
lhand -14.5488 -15.4515
lfingers 7.12502
lthumb 11.5999 14.2075
rfemur 12.4308 9.76793 22.7189
rtibia -6.8425
rfoot -6.42382 -5.52575
rtoes 8.43464
lfemur 25.9147 -4.30503 -13.3599
ltibia -19.2435
lfoot -11.4956 29.8578
ltoes 5.04339
220
root -0.92035 18.0398 5.729 -1.61454 -22.7005 -6.57478
lowerback 3.91015 -1.97041 -0.674769
upperback -2.05499 -2.63518 0.927331
thorax -4.23764 -1.27725 1.53186
lowerneck -14.2987 -0.954107 4.59926
upperneck 34.6866 -4.95792 4.5931
head 14.3832 -1.04513 0.225712
rclavicle 6.12257e-014 -2.06736e-014
rhumerus 36.1473 14.5243 -50.4981
rradius 48.7841
rwrist -36.2023
rhand -7.60477 -66.8818
rfingers 7.12502
rthumb 18.2891 96.042
lclavicle 6.12257e-014 -2.06736e-014
lhumerus -5.15785 -9.28452 91.1534
lradius 58.9006
lwrist 29.5548
lhand -14.9136 -15.8307
lfingers 7.12502
lthumb 11.2481 13.8477
rfemur 12.6169 9.81359 22.7105
rtibia -7.26018
rfoot -6.20369 -5.63778
rtoes 8.03881
lfemur 25.7932 -4.0032 -13.2857
ltibia -19.1002
lfoot -11.3383 29.619
ltoes 4.52568
221
root -0.938286 18.0407 5.69972 -1.70611 -22.7539 -6.40408
lowerback 4.07326 -1.91625 -0.978329
upperback -1.81443 -2.58601 0.78113
thorax -4.07515 -1.2488 1.54742
lowerneck -14.5676 -1.04755 4.56825
upperneck 34.6889 -5.23 4.91135
head 14.4655 -1.11704 0.314211
rclavicle 1.22253e-014 -4.77083e-015
rhumerus 33.7484 17.1068 -52.7448
rradius 48.7196
rwrist -35.1252
rhand -7.95945 -66.3626
rfingers 7.12502
rthumb 17.9479 95.5544
lclavicle 1.22253e-014 -4.77083e-015
lhumerus -4.918 -8.96626 91.6242
lradius 58.3895
lwrist 29.5384
lhand -15.4162 -16.3174
lfingers 7.12502
lthumb 10.7633 13.3868
rfemur 12.8174 9.88765 22.6386
rtibia -7.71308
rfoot -5.97427 -5.78684
rtoes 7.60598
lfemur 25.6643 -3.62101 -13.2597
ltibia -18.9635
lfoot -11.0712 29.3559
ltoes 3.85535
222
root -0.953115 18.0424 5.66934 -1.79998 -22.7815 -6.24435
lowerback 4.27743 -1.84072 -1.11647
upperback -1.50289 -2.5024 0.538398
thorax -3.87517 -1.21001 1.36859
lowerneck -14.9364 -1.17073 4.57179
upperneck 34.5396 -5.60934 5.39443
head 14.5123 -1.20978 0.443893
rclavicle -2.33572e-014 1.03368e-014
rhumerus 31.9227 19.9144 -54.539
rradius 48.3181
rwrist -33.7398
rhand -8.27421 -66.7219
rfingers 7.12502
rthumb 17.645 95.9413
lclavicle -2.33572e-014 1.03368e-014
lhumerus -4.56521 -8.71158 92.1842
lradius 57.8435
lwrist 30.0959
lhand -16.5048 -16.6287
lfingers 7.12502
lthumb 9.7131 13.1274
rfemur 13.0409 9.93999 22.5601
rtibia -8.21427
rfoot -5.71137 -5.94294
rtoes 7.54793
lfemur 25.5433 -3.29422 -13.2444
ltibia -18.8534
lfoot -10.7882 29.1345
ltoes 3.09004
223
root -0.965695 18.0441 5.63851 -1.94069 -22.7633 -6.10781
lowerback 4.55622 -1.83645 -1.26489
upperback -1.11864 -2.5111 0.401687
thorax -3.63425 -1.21662 1.31283
lowerneck -15.3473 -1.23608 4.42929
upperneck 34.2872 -5.8303 5.84026
head 14.521 -1.26019 0.60761
rclavicle -5.65542e-014 0
rhumerus 29.6625 22.177 -57.2022
rradius 48.0047
rwrist -30.793
rhand -7.32627 -67.4895
rfingers 7.12502
rthumb 18.557 96.6244
lclavicle -5.65542e-014 0
lhumerus -4.2206 -8.24291 92.9798
lradius 57.4026
lwrist 31.4191
lhand -18.2796 -16.9106
lfingers 7.12502
lthumb 8.00051 12.918
rfemur 13.3115 9.94626 22.5002
rtibia -8.71109
rfoot -5.44087 -6.1082
rtoes 7.63734
lfemur 25.4955 -2.96152 -13.2077
ltibia -18.8042
lfoot -10.4329 28.8965
ltoes 2.16917
